# xmcd
# 
# Track frame offsets:
#     150
#     19884
#     37774
#     55399
#     71188
#     86155
#     103476
#     120022
#     138819
#     156635
#     174361
#     190446
#     209433
#     228706
#     242536
#     259314
#     272768
#     288172
#     304710
#     318116
# 
# Disc length: 4476
# 
# Revision: 4
# Processed by: cddbd v1.5.2PL0 Copyright (c) Steve Scherf et al.
# Submitted via: fre:ac v1.0.31
# 
DISCID=23117a14
DTITLE=Now That's What I Call Music - Now That's What I Call Music, Vol. 27
DYEAR=2008
DGENRE=Rock/Pop
TTITLE0=Don't Stop The Music
TTITLE1=Just Fine
TTITLE2=Feedback
TTITLE3=Piece Of Me
TTITLE4=Clumsy
TTITLE5=Tattoo
TTITLE6=Love Like This
TTITLE7=Kiss Kiss
TTITLE8=Flashing Lights
TTITLE9=Take You There
TTITLE10=Suffocate
TTITLE11=No One
TTITLE12=Love Song
TTITLE13=Apologize
TTITLE14=Hero-Heroine
TTITLE15=Crushcrushcrush
TTITLE16=Paralyzer
TTITLE17=Into The Night
TTITLE18=Teardrops On My Guitar
TTITLE19=Everybody
EXTD=
EXTT0=
EXTT1=
EXTT2=
EXTT3=
EXTT4=
EXTT5=
EXTT6=
EXTT7=
EXTT8=
EXTT9=
EXTT10=
EXTT11=
EXTT12=
EXTT13=
EXTT14=
EXTT15=
EXTT16=
EXTT17=
EXTT18=
EXTT19=
PLAYORDER=
